# xmcd
#
# Track frame offsets:
#	150
#	13962
#	31542
#	45830
#	59444
#	77635
#	98228
#	112193
#	128188
#	143876
#
# Disc length: 2146 seconds
#
# Revision: 1
# Processed by: cddbd v1.5.1PL0 Copyright (c) Steve Scherf et al.
# Submitted via: audiograbber 1.83.01
#
DISCID=7e08600a
DTITLE=Robby Bloduc - Robby Bolduc
DYEAR=2004
DGENRE=country
TTITLE0=Le Martyr Inutile
TTITLE1=Les Heures Qui Restent
TTITLE2=Danser
TTITLE3=Soupir
TTITLE4=Allez Au Diable
TTITLE5=La Gare
TTITLE6=Jalousie
TTITLE7=Leiya
TTITLE8=J'veux
TTITLE9=La 1ère Seconde
EXTD=New Québec's Superstar
EXTT0=
EXTT1=
EXTT2=
EXTT3=
EXTT4=
EXTT5=
EXTT6=
EXTT7=
EXTT8=
EXTT9=
PLAYORDER=
